<svg width="125" height="48" viewBox="0 0 125 48" fill="none" xmlns="http://www.w3.org/2000/svg">
<path d="M64.056 18.112C63.2347 18.112 62.4987 17.9787 61.848 17.712C61.1973 17.4453 60.6747 17.0507 60.28 16.528C59.896 16.0053 59.6933 15.376 59.672 14.64H62.584C62.6267 15.056 62.7707 15.376 63.016 15.6C63.2613 15.8133 63.5813 15.92 63.976 15.92C64.3813 15.92 64.7013 15.8293 64.936 15.648C65.1707 15.456 65.288 15.1947 65.288 14.864C65.288 14.5867 65.192 14.3573 65 14.176C64.8187 13.9947 64.5893 13.8453 64.312 13.728C64.0453 13.6107 63.6613 13.4773 63.16 13.328C62.4347 13.104 61.8427 12.88 61.384 12.656C60.9253 12.432 60.5307 12.1013 60.2 11.664C59.8693 11.2267 59.704 10.656 59.704 9.952C59.704 8.90667 60.0827 8.09067 60.84 7.504C61.5973 6.90667 62.584 6.608 63.8 6.608C65.0373 6.608 66.0347 6.90667 66.792 7.504C67.5493 8.09067 67.9547 8.912 68.008 9.968H65.048C65.0267 9.60533 64.8933 9.32267 64.648 9.12C64.4027 8.90667 64.088 8.8 63.704 8.8C63.3733 8.8 63.1067 8.89067 62.904 9.072C62.7013 9.24267 62.6 9.49333 62.6 9.824C62.6 10.1867 62.7707 10.4693 63.112 10.672C63.4533 10.8747 63.9867 11.0933 64.712 11.328C65.4373 11.5733 66.024 11.808 66.472 12.032C66.9307 12.256 67.3253 12.5813 67.656 13.008C67.9867 13.4347 68.152 13.984 68.152 14.656C68.152 15.296 67.9867 15.8773 67.656 16.4C67.336 16.9227 66.8667 17.3387 66.248 17.648C65.6293 17.9573 64.8987 18.112 64.056 18.112ZM73.0517 15.888H76.6357V18H70.3157V6.768H73.0517V15.888ZM81.1567 6.768V18H78.4207V6.768H81.1567ZM96.3395 6.768V18H93.6035V11.264L91.0915 18H88.8835L86.3555 11.248V18H83.6195V6.768H86.8515L90.0035 14.544L93.1235 6.768H96.3395ZM101.523 8.96V11.232H105.187V13.344H101.523V15.808H105.667V18H98.787V6.768H105.667V8.96H101.523ZM66.792 36.24C67.4427 36.3787 67.9653 36.704 68.36 37.216C68.7547 37.7173 68.952 38.2933 68.952 38.944C68.952 39.8827 68.6213 40.6293 67.96 41.184C67.3093 41.728 66.3973 42 65.224 42H59.992V30.768H65.048C66.1893 30.768 67.08 31.0293 67.72 31.552C68.3707 32.0747 68.696 32.784 68.696 33.68C68.696 34.3413 68.52 34.8907 68.168 35.328C67.8267 35.7653 67.368 36.0693 66.792 36.24ZM62.728 35.312H64.52C64.968 35.312 65.3093 35.216 65.544 35.024C65.7893 34.8213 65.912 34.528 65.912 34.144C65.912 33.76 65.7893 33.4667 65.544 33.264C65.3093 33.0613 64.968 32.96 64.52 32.96H62.728V35.312ZM64.744 39.792C65.2027 39.792 65.5547 39.6907 65.8 39.488C66.056 39.2747 66.184 38.9707 66.184 38.576C66.184 38.1813 66.0507 37.872 65.784 37.648C65.528 37.424 65.1707 37.312 64.712 37.312H62.728V39.792H64.744ZM73.7069 30.768V37.488C73.7069 38.16 73.8722 38.6773 74.2029 39.04C74.5335 39.4027 75.0189 39.584 75.6589 39.584C76.2989 39.584 76.7895 39.4027 77.1309 39.04C77.4722 38.6773 77.6429 38.16 77.6429 37.488V30.768H80.3789V37.472C80.3789 38.4747 80.1655 39.3227 79.7389 40.016C79.3122 40.7093 78.7362 41.232 78.0109 41.584C77.2962 41.936 76.4962 42.112 75.6109 42.112C74.7255 42.112 73.9309 41.9413 73.2269 41.6C72.5335 41.248 71.9842 40.7253 71.5789 40.032C71.1735 39.328 70.9709 38.4747 70.9709 37.472V30.768H73.7069ZM88.5081 42L86.1721 37.76H85.5161V42H82.7801V30.768H87.3721C88.2575 30.768 89.0095 30.9227 89.6281 31.232C90.2575 31.5413 90.7268 31.968 91.0361 32.512C91.3455 33.0453 91.5001 33.6427 91.5001 34.304C91.5001 35.0507 91.2868 35.7173 90.8601 36.304C90.4441 36.8907 89.8255 37.3067 89.0041 37.552L91.5961 42H88.5081ZM85.5161 35.824H87.2121C87.7135 35.824 88.0868 35.7013 88.3321 35.456C88.5881 35.2107 88.7161 34.864 88.7161 34.416C88.7161 33.9893 88.5881 33.6533 88.3321 33.408C88.0868 33.1627 87.7135 33.04 87.2121 33.04H85.5161V35.824ZM101.154 34.32C100.951 33.9467 100.658 33.664 100.274 33.472C99.9003 33.2693 99.4576 33.168 98.9456 33.168C98.0603 33.168 97.351 33.4613 96.8176 34.048C96.2843 34.624 96.0176 35.3973 96.0176 36.368C96.0176 37.4027 96.295 38.2133 96.8496 38.8C97.415 39.376 98.1883 39.664 99.1696 39.664C99.8416 39.664 100.407 39.4933 100.866 39.152C101.335 38.8107 101.676 38.32 101.89 37.68H98.4176V35.664H104.37V38.208C104.167 38.8907 103.82 39.5253 103.33 40.112C102.85 40.6987 102.236 41.1733 101.49 41.536C100.743 41.8987 99.9003 42.08 98.9616 42.08C97.8523 42.08 96.8603 41.84 95.9856 41.36C95.1216 40.8693 94.4443 40.192 93.9536 39.328C93.4736 38.464 93.2336 37.4773 93.2336 36.368C93.2336 35.2587 93.4736 34.272 93.9536 33.408C94.4443 32.5333 95.1216 31.856 95.9856 31.376C96.8496 30.8853 97.8363 30.64 98.9456 30.64C100.29 30.64 101.42 30.9653 102.338 31.616C103.266 32.2667 103.879 33.168 104.178 34.32H101.154ZM109.101 32.96V35.232H112.765V37.344H109.101V39.808H113.245V42H106.365V30.768H113.245V32.96H109.101ZM121.229 42L118.893 37.76H118.237V42H115.501V30.768H120.093C120.979 30.768 121.731 30.9227 122.349 31.232C122.979 31.5413 123.448 31.968 123.757 32.512C124.067 33.0453 124.221 33.6427 124.221 34.304C124.221 35.0507 124.008 35.7173 123.581 36.304C123.165 36.8907 122.547 37.3067 121.725 37.552L124.317 42H121.229ZM118.237 35.824H119.933C120.435 35.824 120.808 35.7013 121.053 35.456C121.309 35.2107 121.437 34.864 121.437 34.416C121.437 33.9893 121.309 33.6533 121.053 33.408C120.808 33.1627 120.435 33.04 119.933 33.04H118.237V35.824Z" fill="#3C3C3C"/>
<mask id="path-2-inside-1_630:2" fill="white">
<path d="M14.6827 9.25559C14.3177 8.89482 14.3177 8.30991 14.6827 7.94914L16.0047 6.64269C16.3698 6.28193 16.9616 6.28193 17.3267 6.64269C17.6917 7.00346 17.6917 7.58837 17.3267 7.94914L16.0047 9.25559C15.6397 9.61635 15.0478 9.61635 14.6827 9.25559Z"/>
<path d="M9.82185 12.2249C9.45679 12.5856 9.45679 13.1705 9.82185 13.5313C10.1869 13.8921 10.7788 13.8921 11.1438 13.5313L12.4658 12.2249C12.8309 11.8641 12.8309 11.2792 12.4658 10.9184C12.1008 10.5576 11.5089 10.5576 11.1438 10.9184L9.82185 12.2249Z"/>
<path d="M15.4305 14.0725C15.0655 14.4332 15.0655 15.0181 15.4305 15.3789C15.7956 15.7397 16.3875 15.7397 16.7525 15.3789L18.0745 14.0725C18.4396 13.7117 18.4396 13.1268 18.0745 12.766C17.7095 12.4052 17.1176 12.4052 16.7525 12.766L15.4305 14.0725Z"/>
<path d="M21.0392 8.52967C20.6742 8.89044 20.6742 9.47535 21.0392 9.83612C21.4043 10.1969 21.9962 10.1969 22.3612 9.83612L23.6832 8.52967C24.0483 8.16891 24.0483 7.58399 23.6832 7.22322C23.3181 6.86246 22.7263 6.86246 22.3612 7.22322L21.0392 8.52967Z"/>
<path d="M26.6479 11.6837C26.2829 11.3229 26.2829 10.738 26.6479 10.3773L27.9699 9.07082C28.335 8.71005 28.9268 8.71005 29.2919 9.07082C29.6569 9.43158 29.6569 10.0165 29.2919 10.3773L27.9699 11.6837C27.6049 12.0445 27.013 12.0445 26.6479 11.6837Z"/>
<path d="M30.3871 14.0725C30.022 14.4332 30.022 15.0181 30.3871 15.3789C30.7521 15.7397 31.344 15.7397 31.709 15.3789L33.031 14.0725C33.3961 13.7117 33.3961 13.1268 33.031 12.766C32.666 12.4052 32.0741 12.4052 31.709 12.766L30.3871 14.0725Z"/>
<path d="M22.161 15.9332C21.7959 15.5724 21.7959 14.9875 22.161 14.6267L23.483 13.3203C23.848 12.9595 24.4399 12.9595 24.8049 13.3203C25.17 13.6811 25.17 14.266 24.8049 14.6267L23.483 15.9332C23.1179 16.294 22.526 16.294 22.161 15.9332Z"/>
<path fill-rule="evenodd" clip-rule="evenodd" d="M4.13621 19.2797C2.07159 19.2374 0.387081 17.519 0.982442 15.5648C1.26268 14.645 1.6419 13.7445 2.11733 12.8736C3.20666 10.878 4.77973 9.0768 6.74673 7.57271C8.71372 6.06863 11.0361 4.89114 13.5813 4.1075C16.1265 3.32385 18.8447 2.94939 21.5806 3.00549C24.3165 3.06159 27.0166 3.54715 29.5267 4.43445C32.0368 5.32175 34.3078 6.59342 36.21 8.17684C38.1121 9.76026 39.6083 11.6244 40.6129 13.6629C40.7724 13.9866 40.9191 14.3137 41.0527 14.6437C42.2037 17.4857 39.5546 20.006 36.4577 19.9425L4.13621 19.2797ZM2.77262 16.0975C3.01567 15.2997 3.34584 14.5145 3.76273 13.7508C4.71795 12.0009 6.11282 10.3935 7.89082 9.03396C9.66933 7.674 11.7895 6.59436 14.1374 5.87147C16.4851 5.14865 19.002 4.80061 21.5418 4.85269C24.0816 4.90476 26.5818 5.35568 28.897 6.17411C31.2126 6.99263 33.2856 8.15824 35.0055 9.58993C36.7249 11.0212 38.0511 12.6844 38.9321 14.4719C39.072 14.7558 39.2003 15.0421 39.317 15.3302C39.5972 16.0219 39.4438 16.6228 38.9693 17.135C38.4502 17.6953 37.5424 18.1167 36.4965 18.0953L4.17499 17.4325C3.64564 17.4217 3.21068 17.1942 2.96533 16.9186C2.74522 16.6714 2.67878 16.4055 2.77262 16.0975Z"/>
<path d="M3.73913 37.6096C1.67407 37.6096 9.53636e-10 39.264 9.53636e-10 41.3048C9.53636e-10 43.3456 1.67407 45 3.73913 45H30.8478C31.3641 45 31.7826 44.5864 31.7826 44.0762C31.7826 43.566 31.3641 43.1524 30.8478 43.1524H3.73913C2.7066 43.1524 1.86956 42.3252 1.86956 41.3048C1.86956 40.2844 2.7066 39.4572 3.73913 39.4572H39.2609C40.2934 39.4572 41.1304 40.2844 41.1304 41.3048C41.1304 42.3252 40.2934 43.1524 39.2609 43.1524H35.5217C35.0055 43.1524 34.5869 43.566 34.5869 44.0762C34.5869 44.5864 35.0055 45 35.5217 45H39.2609C41.3259 45 43 43.3456 43 41.3048C43 39.264 41.3259 37.6096 39.2609 37.6096H3.73913Z"/>
<path d="M1.56359 22.1453C2.13833 22.6616 2.60968 22.8288 2.99131 22.8288C3.37294 22.8288 3.84429 22.6616 4.41903 22.1453C5.2153 21.4299 6.11497 20.9813 7.10435 20.9813C8.09373 20.9813 8.9934 21.4299 9.78968 22.1453C10.3644 22.6616 10.8358 22.8288 11.2174 22.8288C11.599 22.8288 12.0704 22.6616 12.6451 22.1453C13.4414 21.4299 14.3411 20.9813 15.3304 20.9813C16.3198 20.9813 17.2195 21.4299 18.0158 22.1453C18.5905 22.6616 19.0618 22.8288 19.4435 22.8288C19.8251 22.8288 20.2965 22.6616 20.8712 22.1453C21.6675 21.4299 22.5671 20.9813 23.5565 20.9813C24.5459 20.9813 25.4456 21.4299 26.2418 22.1453C26.8166 22.6616 27.2879 22.8288 27.6696 22.8288C28.0512 22.8288 28.5225 22.6616 29.0973 22.1453C29.8936 21.4299 30.7932 20.9813 31.7826 20.9813C32.772 20.9813 33.6717 21.4299 34.4679 22.1453C35.0427 22.6616 35.514 22.8288 35.8956 22.8288C36.2773 22.8288 36.7486 22.6616 37.3234 22.1453C38.1196 21.4299 39.0193 20.9813 40.0087 20.9813C40.9981 20.9813 41.8977 21.4299 42.694 22.1453C43.076 22.4885 43.1042 23.0727 42.7569 23.4503C42.4096 23.8278 41.8184 23.8556 41.4364 23.5124C40.8617 22.9961 40.3903 22.8288 40.0087 22.8288C39.6271 22.8288 39.1557 22.9961 38.581 23.5124C37.7847 24.2278 36.885 24.6764 35.8956 24.6764C34.9063 24.6764 34.0066 24.2278 33.2103 23.5124C32.6356 22.9961 32.1642 22.8288 31.7826 22.8288C31.401 22.8288 30.9296 22.9961 30.3549 23.5124C29.5586 24.2278 28.6589 24.6764 27.6696 24.6764C26.6802 24.6764 25.7805 24.2278 24.9842 23.5124C24.4095 22.9961 23.9382 22.8288 23.5565 22.8288C23.1749 22.8288 22.7035 22.9961 22.1288 23.5124C21.3325 24.2278 20.4329 24.6764 19.4435 24.6764C18.4541 24.6764 17.5544 24.2278 16.7582 23.5124C16.1834 22.9961 15.7121 22.8288 15.3304 22.8288C14.9488 22.8288 14.4775 22.9961 13.9027 23.5124C13.1064 24.2278 12.2068 24.6764 11.2174 24.6764C10.228 24.6764 9.32835 24.2278 8.53207 23.5124C7.95733 22.9961 7.48599 22.8288 7.10435 22.8288C6.72272 22.8288 6.25137 22.9961 5.67663 23.5124C4.88036 24.2278 3.98069 24.6764 2.99131 24.6764C2.00193 24.6764 1.10226 24.2278 0.305986 23.5124C-0.0760197 23.1692 -0.104172 22.585 0.243106 22.2074C0.590384 21.8299 1.18159 21.8021 1.56359 22.1453Z"/>
<path d="M3.73914 29.2954C3.73914 28.7852 4.15765 28.3716 4.67392 28.3716H40.1956C40.7119 28.3716 41.1304 27.958 41.1304 27.4478C41.1304 26.9376 40.7119 26.524 40.1956 26.524H4.67392C3.12512 26.524 1.86957 27.7648 1.86957 29.2954C1.86957 30.826 3.12512 32.0668 4.67392 32.0668H38.3261C38.8423 32.0668 39.2609 32.4804 39.2609 32.9906C39.2609 33.5008 38.8423 33.9144 38.3261 33.9144H2.80435C2.28809 33.9144 1.86957 34.328 1.86957 34.8382C1.86957 35.3484 2.28809 35.762 2.80435 35.762H38.3261C39.8749 35.762 41.1304 34.5212 41.1304 32.9906C41.1304 31.46 39.8749 30.2192 38.3261 30.2192H4.67392C4.15765 30.2192 3.73914 29.8056 3.73914 29.2954Z"/>
</mask>
<path d="M14.6827 9.25559C14.3177 8.89482 14.3177 8.30991 14.6827 7.94914L16.0047 6.64269C16.3698 6.28193 16.9616 6.28193 17.3267 6.64269C17.6917 7.00346 17.6917 7.58837 17.3267 7.94914L16.0047 9.25559C15.6397 9.61635 15.0478 9.61635 14.6827 9.25559Z" fill="#404040"/>
<path d="M9.82185 12.2249C9.45679 12.5856 9.45679 13.1705 9.82185 13.5313C10.1869 13.8921 10.7788 13.8921 11.1438 13.5313L12.4658 12.2249C12.8309 11.8641 12.8309 11.2792 12.4658 10.9184C12.1008 10.5576 11.5089 10.5576 11.1438 10.9184L9.82185 12.2249Z" fill="#404040"/>
<path d="M15.4305 14.0725C15.0655 14.4332 15.0655 15.0181 15.4305 15.3789C15.7956 15.7397 16.3875 15.7397 16.7525 15.3789L18.0745 14.0725C18.4396 13.7117 18.4396 13.1268 18.0745 12.766C17.7095 12.4052 17.1176 12.4052 16.7525 12.766L15.4305 14.0725Z" fill="#404040"/>
<path d="M21.0392 8.52967C20.6742 8.89044 20.6742 9.47535 21.0392 9.83612C21.4043 10.1969 21.9962 10.1969 22.3612 9.83612L23.6832 8.52967C24.0483 8.16891 24.0483 7.58399 23.6832 7.22322C23.3181 6.86246 22.7263 6.86246 22.3612 7.22322L21.0392 8.52967Z" fill="#404040"/>
<path d="M26.6479 11.6837C26.2829 11.3229 26.2829 10.738 26.6479 10.3773L27.9699 9.07082C28.335 8.71005 28.9268 8.71005 29.2919 9.07082C29.6569 9.43158 29.6569 10.0165 29.2919 10.3773L27.9699 11.6837C27.6049 12.0445 27.013 12.0445 26.6479 11.6837Z" fill="#404040"/>
<path d="M30.3871 14.0725C30.022 14.4332 30.022 15.0181 30.3871 15.3789C30.7521 15.7397 31.344 15.7397 31.709 15.3789L33.031 14.0725C33.3961 13.7117 33.3961 13.1268 33.031 12.766C32.666 12.4052 32.0741 12.4052 31.709 12.766L30.3871 14.0725Z" fill="#404040"/>
<path d="M22.161 15.9332C21.7959 15.5724 21.7959 14.9875 22.161 14.6267L23.483 13.3203C23.848 12.9595 24.4399 12.9595 24.8049 13.3203C25.17 13.6811 25.17 14.266 24.8049 14.6267L23.483 15.9332C23.1179 16.294 22.526 16.294 22.161 15.9332Z" fill="#404040"/>
<path fill-rule="evenodd" clip-rule="evenodd" d="M4.13621 19.2797C2.07159 19.2374 0.387081 17.519 0.982442 15.5648C1.26268 14.645 1.6419 13.7445 2.11733 12.8736C3.20666 10.878 4.77973 9.0768 6.74673 7.57271C8.71372 6.06863 11.0361 4.89114 13.5813 4.1075C16.1265 3.32385 18.8447 2.94939 21.5806 3.00549C24.3165 3.06159 27.0166 3.54715 29.5267 4.43445C32.0368 5.32175 34.3078 6.59342 36.21 8.17684C38.1121 9.76026 39.6083 11.6244 40.6129 13.6629C40.7724 13.9866 40.9191 14.3137 41.0527 14.6437C42.2037 17.4857 39.5546 20.006 36.4577 19.9425L4.13621 19.2797ZM2.77262 16.0975C3.01567 15.2997 3.34584 14.5145 3.76273 13.7508C4.71795 12.0009 6.11282 10.3935 7.89082 9.03396C9.66933 7.674 11.7895 6.59436 14.1374 5.87147C16.4851 5.14865 19.002 4.80061 21.5418 4.85269C24.0816 4.90476 26.5818 5.35568 28.897 6.17411C31.2126 6.99263 33.2856 8.15824 35.0055 9.58993C36.7249 11.0212 38.0511 12.6844 38.9321 14.4719C39.072 14.7558 39.2003 15.0421 39.317 15.3302C39.5972 16.0219 39.4438 16.6228 38.9693 17.135C38.4502 17.6953 37.5424 18.1167 36.4965 18.0953L4.17499 17.4325C3.64564 17.4217 3.21068 17.1942 2.96533 16.9186C2.74522 16.6714 2.67878 16.4055 2.77262 16.0975Z" fill="#404040"/>
<path d="M3.73913 37.6096C1.67407 37.6096 9.53636e-10 39.264 9.53636e-10 41.3048C9.53636e-10 43.3456 1.67407 45 3.73913 45H30.8478C31.3641 45 31.7826 44.5864 31.7826 44.0762C31.7826 43.566 31.3641 43.1524 30.8478 43.1524H3.73913C2.7066 43.1524 1.86956 42.3252 1.86956 41.3048C1.86956 40.2844 2.7066 39.4572 3.73913 39.4572H39.2609C40.2934 39.4572 41.1304 40.2844 41.1304 41.3048C41.1304 42.3252 40.2934 43.1524 39.2609 43.1524H35.5217C35.0055 43.1524 34.5869 43.566 34.5869 44.0762C34.5869 44.5864 35.0055 45 35.5217 45H39.2609C41.3259 45 43 43.3456 43 41.3048C43 39.264 41.3259 37.6096 39.2609 37.6096H3.73913Z" fill="#404040"/>
<path d="M1.56359 22.1453C2.13833 22.6616 2.60968 22.8288 2.99131 22.8288C3.37294 22.8288 3.84429 22.6616 4.41903 22.1453C5.2153 21.4299 6.11497 20.9813 7.10435 20.9813C8.09373 20.9813 8.9934 21.4299 9.78968 22.1453C10.3644 22.6616 10.8358 22.8288 11.2174 22.8288C11.599 22.8288 12.0704 22.6616 12.6451 22.1453C13.4414 21.4299 14.3411 20.9813 15.3304 20.9813C16.3198 20.9813 17.2195 21.4299 18.0158 22.1453C18.5905 22.6616 19.0618 22.8288 19.4435 22.8288C19.8251 22.8288 20.2965 22.6616 20.8712 22.1453C21.6675 21.4299 22.5671 20.9813 23.5565 20.9813C24.5459 20.9813 25.4456 21.4299 26.2418 22.1453C26.8166 22.6616 27.2879 22.8288 27.6696 22.8288C28.0512 22.8288 28.5225 22.6616 29.0973 22.1453C29.8936 21.4299 30.7932 20.9813 31.7826 20.9813C32.772 20.9813 33.6717 21.4299 34.4679 22.1453C35.0427 22.6616 35.514 22.8288 35.8956 22.8288C36.2773 22.8288 36.7486 22.6616 37.3234 22.1453C38.1196 21.4299 39.0193 20.9813 40.0087 20.9813C40.9981 20.9813 41.8977 21.4299 42.694 22.1453C43.076 22.4885 43.1042 23.0727 42.7569 23.4503C42.4096 23.8278 41.8184 23.8556 41.4364 23.5124C40.8617 22.9961 40.3903 22.8288 40.0087 22.8288C39.6271 22.8288 39.1557 22.9961 38.581 23.5124C37.7847 24.2278 36.885 24.6764 35.8956 24.6764C34.9063 24.6764 34.0066 24.2278 33.2103 23.5124C32.6356 22.9961 32.1642 22.8288 31.7826 22.8288C31.401 22.8288 30.9296 22.9961 30.3549 23.5124C29.5586 24.2278 28.6589 24.6764 27.6696 24.6764C26.6802 24.6764 25.7805 24.2278 24.9842 23.5124C24.4095 22.9961 23.9382 22.8288 23.5565 22.8288C23.1749 22.8288 22.7035 22.9961 22.1288 23.5124C21.3325 24.2278 20.4329 24.6764 19.4435 24.6764C18.4541 24.6764 17.5544 24.2278 16.7582 23.5124C16.1834 22.9961 15.7121 22.8288 15.3304 22.8288C14.9488 22.8288 14.4775 22.9961 13.9027 23.5124C13.1064 24.2278 12.2068 24.6764 11.2174 24.6764C10.228 24.6764 9.32835 24.2278 8.53207 23.5124C7.95733 22.9961 7.48599 22.8288 7.10435 22.8288C6.72272 22.8288 6.25137 22.9961 5.67663 23.5124C4.88036 24.2278 3.98069 24.6764 2.99131 24.6764C2.00193 24.6764 1.10226 24.2278 0.305986 23.5124C-0.0760197 23.1692 -0.104172 22.585 0.243106 22.2074C0.590384 21.8299 1.18159 21.8021 1.56359 22.1453Z" fill="#404040"/>
<path d="M3.73914 29.2954C3.73914 28.7852 4.15765 28.3716 4.67392 28.3716H40.1956C40.7119 28.3716 41.1304 27.958 41.1304 27.4478C41.1304 26.9376 40.7119 26.524 40.1956 26.524H4.67392C3.12512 26.524 1.86957 27.7648 1.86957 29.2954C1.86957 30.826 3.12512 32.0668 4.67392 32.0668H38.3261C38.8423 32.0668 39.2609 32.4804 39.2609 32.9906C39.2609 33.5008 38.8423 33.9144 38.3261 33.9144H2.80435C2.28809 33.9144 1.86957 34.328 1.86957 34.8382C1.86957 35.3484 2.28809 35.762 2.80435 35.762H38.3261C39.8749 35.762 41.1304 34.5212 41.1304 32.9906C41.1304 31.46 39.8749 30.2192 38.3261 30.2192H4.67392C4.15765 30.2192 3.73914 29.8056 3.73914 29.2954Z" fill="#404040"/>
<path d="M14.6827 9.25559C14.3177 8.89482 14.3177 8.30991 14.6827 7.94914L16.0047 6.64269C16.3698 6.28193 16.9616 6.28193 17.3267 6.64269C17.6917 7.00346 17.6917 7.58837 17.3267 7.94914L16.0047 9.25559C15.6397 9.61635 15.0478 9.61635 14.6827 9.25559Z" stroke="#404040" stroke-width="7.43124" mask="url(#path-2-inside-1_630:2)"/>
<path d="M9.82185 12.2249C9.45679 12.5856 9.45679 13.1705 9.82185 13.5313C10.1869 13.8921 10.7788 13.8921 11.1438 13.5313L12.4658 12.2249C12.8309 11.8641 12.8309 11.2792 12.4658 10.9184C12.1008 10.5576 11.5089 10.5576 11.1438 10.9184L9.82185 12.2249Z" stroke="#404040" stroke-width="7.43124" mask="url(#path-2-inside-1_630:2)"/>
<path d="M15.4305 14.0725C15.0655 14.4332 15.0655 15.0181 15.4305 15.3789C15.7956 15.7397 16.3875 15.7397 16.7525 15.3789L18.0745 14.0725C18.4396 13.7117 18.4396 13.1268 18.0745 12.766C17.7095 12.4052 17.1176 12.4052 16.7525 12.766L15.4305 14.0725Z" stroke="#404040" stroke-width="7.43124" mask="url(#path-2-inside-1_630:2)"/>
<path d="M21.0392 8.52967C20.6742 8.89044 20.6742 9.47535 21.0392 9.83612C21.4043 10.1969 21.9962 10.1969 22.3612 9.83612L23.6832 8.52967C24.0483 8.16891 24.0483 7.58399 23.6832 7.22322C23.3181 6.86246 22.7263 6.86246 22.3612 7.22322L21.0392 8.52967Z" stroke="#404040" stroke-width="7.43124" mask="url(#path-2-inside-1_630:2)"/>
<path d="M26.6479 11.6837C26.2829 11.3229 26.2829 10.738 26.6479 10.3773L27.9699 9.07082C28.335 8.71005 28.9268 8.71005 29.2919 9.07082C29.6569 9.43158 29.6569 10.0165 29.2919 10.3773L27.9699 11.6837C27.6049 12.0445 27.013 12.0445 26.6479 11.6837Z" stroke="#404040" stroke-width="7.43124" mask="url(#path-2-inside-1_630:2)"/>
<path d="M30.3871 14.0725C30.022 14.4332 30.022 15.0181 30.3871 15.3789C30.7521 15.7397 31.344 15.7397 31.709 15.3789L33.031 14.0725C33.3961 13.7117 33.3961 13.1268 33.031 12.766C32.666 12.4052 32.0741 12.4052 31.709 12.766L30.3871 14.0725Z" stroke="#404040" stroke-width="7.43124" mask="url(#path-2-inside-1_630:2)"/>
<path d="M22.161 15.9332C21.7959 15.5724 21.7959 14.9875 22.161 14.6267L23.483 13.3203C23.848 12.9595 24.4399 12.9595 24.8049 13.3203C25.17 13.6811 25.17 14.266 24.8049 14.6267L23.483 15.9332C23.1179 16.294 22.526 16.294 22.161 15.9332Z" stroke="#404040" stroke-width="7.43124" mask="url(#path-2-inside-1_630:2)"/>
<path fill-rule="evenodd" clip-rule="evenodd" d="M4.13621 19.2797C2.07159 19.2374 0.387081 17.519 0.982442 15.5648C1.26268 14.645 1.6419 13.7445 2.11733 12.8736C3.20666 10.878 4.77973 9.0768 6.74673 7.57271C8.71372 6.06863 11.0361 4.89114 13.5813 4.1075C16.1265 3.32385 18.8447 2.94939 21.5806 3.00549C24.3165 3.06159 27.0166 3.54715 29.5267 4.43445C32.0368 5.32175 34.3078 6.59342 36.21 8.17684C38.1121 9.76026 39.6083 11.6244 40.6129 13.6629C40.7724 13.9866 40.9191 14.3137 41.0527 14.6437C42.2037 17.4857 39.5546 20.006 36.4577 19.9425L4.13621 19.2797ZM2.77262 16.0975C3.01567 15.2997 3.34584 14.5145 3.76273 13.7508C4.71795 12.0009 6.11282 10.3935 7.89082 9.03396C9.66933 7.674 11.7895 6.59436 14.1374 5.87147C16.4851 5.14865 19.002 4.80061 21.5418 4.85269C24.0816 4.90476 26.5818 5.35568 28.897 6.17411C31.2126 6.99263 33.2856 8.15824 35.0055 9.58993C36.7249 11.0212 38.0511 12.6844 38.9321 14.4719C39.072 14.7558 39.2003 15.0421 39.317 15.3302C39.5972 16.0219 39.4438 16.6228 38.9693 17.135C38.4502 17.6953 37.5424 18.1167 36.4965 18.0953L4.17499 17.4325C3.64564 17.4217 3.21068 17.1942 2.96533 16.9186C2.74522 16.6714 2.67878 16.4055 2.77262 16.0975Z" stroke="#404040" stroke-width="7.43124" mask="url(#path-2-inside-1_630:2)"/>
<path d="M3.73913 37.6096C1.67407 37.6096 9.53636e-10 39.264 9.53636e-10 41.3048C9.53636e-10 43.3456 1.67407 45 3.73913 45H30.8478C31.3641 45 31.7826 44.5864 31.7826 44.0762C31.7826 43.566 31.3641 43.1524 30.8478 43.1524H3.73913C2.7066 43.1524 1.86956 42.3252 1.86956 41.3048C1.86956 40.2844 2.7066 39.4572 3.73913 39.4572H39.2609C40.2934 39.4572 41.1304 40.2844 41.1304 41.3048C41.1304 42.3252 40.2934 43.1524 39.2609 43.1524H35.5217C35.0055 43.1524 34.5869 43.566 34.5869 44.0762C34.5869 44.5864 35.0055 45 35.5217 45H39.2609C41.3259 45 43 43.3456 43 41.3048C43 39.264 41.3259 37.6096 39.2609 37.6096H3.73913Z" stroke="#404040" stroke-width="7.43124" mask="url(#path-2-inside-1_630:2)"/>
<path d="M1.56359 22.1453C2.13833 22.6616 2.60968 22.8288 2.99131 22.8288C3.37294 22.8288 3.84429 22.6616 4.41903 22.1453C5.2153 21.4299 6.11497 20.9813 7.10435 20.9813C8.09373 20.9813 8.9934 21.4299 9.78968 22.1453C10.3644 22.6616 10.8358 22.8288 11.2174 22.8288C11.599 22.8288 12.0704 22.6616 12.6451 22.1453C13.4414 21.4299 14.3411 20.9813 15.3304 20.9813C16.3198 20.9813 17.2195 21.4299 18.0158 22.1453C18.5905 22.6616 19.0618 22.8288 19.4435 22.8288C19.8251 22.8288 20.2965 22.6616 20.8712 22.1453C21.6675 21.4299 22.5671 20.9813 23.5565 20.9813C24.5459 20.9813 25.4456 21.4299 26.2418 22.1453C26.8166 22.6616 27.2879 22.8288 27.6696 22.8288C28.0512 22.8288 28.5225 22.6616 29.0973 22.1453C29.8936 21.4299 30.7932 20.9813 31.7826 20.9813C32.772 20.9813 33.6717 21.4299 34.4679 22.1453C35.0427 22.6616 35.514 22.8288 35.8956 22.8288C36.2773 22.8288 36.7486 22.6616 37.3234 22.1453C38.1196 21.4299 39.0193 20.9813 40.0087 20.9813C40.9981 20.9813 41.8977 21.4299 42.694 22.1453C43.076 22.4885 43.1042 23.0727 42.7569 23.4503C42.4096 23.8278 41.8184 23.8556 41.4364 23.5124C40.8617 22.9961 40.3903 22.8288 40.0087 22.8288C39.6271 22.8288 39.1557 22.9961 38.581 23.5124C37.7847 24.2278 36.885 24.6764 35.8956 24.6764C34.9063 24.6764 34.0066 24.2278 33.2103 23.5124C32.6356 22.9961 32.1642 22.8288 31.7826 22.8288C31.401 22.8288 30.9296 22.9961 30.3549 23.5124C29.5586 24.2278 28.6589 24.6764 27.6696 24.6764C26.6802 24.6764 25.7805 24.2278 24.9842 23.5124C24.4095 22.9961 23.9382 22.8288 23.5565 22.8288C23.1749 22.8288 22.7035 22.9961 22.1288 23.5124C21.3325 24.2278 20.4329 24.6764 19.4435 24.6764C18.4541 24.6764 17.5544 24.2278 16.7582 23.5124C16.1834 22.9961 15.7121 22.8288 15.3304 22.8288C14.9488 22.8288 14.4775 22.9961 13.9027 23.5124C13.1064 24.2278 12.2068 24.6764 11.2174 24.6764C10.228 24.6764 9.32835 24.2278 8.53207 23.5124C7.95733 22.9961 7.48599 22.8288 7.10435 22.8288C6.72272 22.8288 6.25137 22.9961 5.67663 23.5124C4.88036 24.2278 3.98069 24.6764 2.99131 24.6764C2.00193 24.6764 1.10226 24.2278 0.305986 23.5124C-0.0760197 23.1692 -0.104172 22.585 0.243106 22.2074C0.590384 21.8299 1.18159 21.8021 1.56359 22.1453Z" stroke="#404040" stroke-width="7.43124" mask="url(#path-2-inside-1_630:2)"/>
<path d="M3.73914 29.2954C3.73914 28.7852 4.15765 28.3716 4.67392 28.3716H40.1956C40.7119 28.3716 41.1304 27.958 41.1304 27.4478C41.1304 26.9376 40.7119 26.524 40.1956 26.524H4.67392C3.12512 26.524 1.86957 27.7648 1.86957 29.2954C1.86957 30.826 3.12512 32.0668 4.67392 32.0668H38.3261C38.8423 32.0668 39.2609 32.4804 39.2609 32.9906C39.2609 33.5008 38.8423 33.9144 38.3261 33.9144H2.80435C2.28809 33.9144 1.86957 34.328 1.86957 34.8382C1.86957 35.3484 2.28809 35.762 2.80435 35.762H38.3261C39.8749 35.762 41.1304 34.5212 41.1304 32.9906C41.1304 31.46 39.8749 30.2192 38.3261 30.2192H4.67392C4.15765 30.2192 3.73914 29.8056 3.73914 29.2954Z" stroke="#404040" stroke-width="7.43124" mask="url(#path-2-inside-1_630:2)"/>
</svg>
